<svg width="120" height="120" viewBox="0 0 120 120" fill="none" xmlns="http://www.w3.org/2000/svg">
  <defs>
    <linearGradient id="watchBand" x1="21" y1="5" x2="54" y2="98" gradientUnits="userSpaceOnUse">
      <stop stop-color="#202229"/>
      <stop offset="1" stop-color="#4B515E"/>
    </linearGradient>
    <radialGradient id="watchFace" cx="0" cy="0" r="1" gradientUnits="userSpaceOnUse" gradientTransform="translate(60 60) rotate(90) scale(31)">
      <stop stop-color="#0D1018"/>
      <stop offset="1" stop-color="#1B1E28"/>
    </radialGradient>
    <linearGradient id="watchAccentPink" x1="43" y1="39" x2="79" y2="76" gradientUnits="userSpaceOnUse">
      <stop stop-color="#F44B9A"/>
      <stop offset="1" stop-color="#7D35F6"/>
    </linearGradient>
    <linearGradient id="watchAccentGreen" x1="49" y1="46" x2="74" y2="73" gradientUnits="userSpaceOnUse">
      <stop stop-color="#B8FF36"/>
      <stop offset="1" stop-color="#1CCF79"/>
    </linearGradient>
  </defs>
  <path d="M48 7C48 3.68629 50.6863 1 54 1H66C69.3137 1 72 3.68629 72 7V22H48V7Z" fill="url(#watchBand)"/>
  <path d="M48 98H72V113C72 116.314 69.3137 119 66 119H54C50.6863 119 48 116.314 48 113V98Z" fill="url(#watchBand)"/>
  <rect x="26" y="24" width="68" height="72" rx="22" fill="#0E1118"/>
  <rect x="30" y="28" width="60" height="64" rx="18" fill="url(#watchFace)"/>
  <path d="M42 38C42 35.7909 43.7909 34 46 34H74C76.2091 34 78 35.7909 78 38V82C78 84.2091 76.2091 86 74 86H46C43.7909 86 42 84.2091 42 82V38Z" fill="#0A0D14"/>
  <circle cx="60" cy="60" r="20" fill="url(#watchAccentPink)" fill-opacity="0.95"/>
  <path d="M60 40C67.9561 40 74.7543 44.9794 77.4509 52H42.5491C45.2457 44.9794 52.0439 40 60 40Z" fill="url(#watchAccentGreen)"/>
  <path d="M60 80C52.0439 80 45.2457 75.0206 42.5491 68H77.4509C74.7543 75.0206 67.9561 80 60 80Z" fill="#2D8CFF"/>
  <circle cx="60" cy="60" r="6.5" fill="#10131A"/>
</svg>
